<svg xmlns="http://www.w3.org/2000/svg" xmlns:xlink="http://www.w3.org/1999/xlink" viewBox="0 0 4999.28 3612"><defs><style>.cls-1{fill:url(#linear-gradient);}.cls-2{opacity:0.55;}.cls-3,.cls-6{fill:#30c41c;}.cls-3,.cls-4,.cls-5,.cls-6{fill-rule:evenodd;isolation:isolate;}.cls-3,.cls-4{opacity:0.42;}.cls-4{fill:#3c3;}.cls-5{fill:#6f6;opacity:0.32;}.cls-6{opacity:0.33;}</style><linearGradient id="linear-gradient" x1="142.88" y1="199.34" x2="4946.24" y2="2876.87" gradientUnits="userSpaceOnUse"><stop offset="0" stop-color="#033"/><stop offset="0.13" stop-color="#002a2a"/><stop offset="0.77"/></linearGradient></defs><g id="Layer_2" data-name="Layer 2"><rect class="cls-1" width="4993.27" height="3022.79"/></g><g id="Layer_1" data-name="Layer 1"><g id="Design" class="cls-2"><path id="Shape" class="cls-3" d="M1616.63,1350l-602.7,507.59,175.79,275.64L1616.63,1350m-6.84.2L904.56,1686.14,1011.61,1854l598.18-503.77m-601.43,506.51-105.49-165.4-8.27,261.22,113.76-95.82m175,274.37-172.68-270.76-116.27,97.93,0,.52h0l-.09,2.33,36.35,21.36,252.72,148.61m2,6.12-291.3-171.27-13,321.15,304.33-149.88m.64,4.45L880.85,2292l-30.4,748.84L1186,2141.65m426.39-797.44-880,72,169,265,1.8.07,0,.84,709.24-337.86m-879,1023.41-.54-.38,113.67,666.61,30.05-739.8L732.92,2364.8l.48,2.82M890,1963.52l-3.54-2.08L675.9,2032.17l56.26,328.23,144.61-71.22L890,1963.52m8.77-274.62-258.22,123L886.9,1956.76l3.41-1.14,8.46-266.72m-.35-4.58L729.61,1419.66,639,1807.89l259.38-123.57m-16.85,274.24L638.83,1815.84l36.35,212.06,206.39-69.34M728.33,2368.4l-3.74.51-171,84.2L843.35,3040,728.57,2367l-.4.2.17,1.25m-17.13,2.33L525.44,2396l26.29,53.26,159.48-78.54M671,2029.3l-36.24-212.51L400.5,2120.16,671,2029.3m55.79,333.76-329.7-227L523.43,2392l199.92-27.22,3.43-1.68m.27-5-55.34-324.52-275.93,92.7-1.86,2.4,333.13,229.42m114.2,687.17L549.84,2455,304.43,2575.84l536.83,469.42M630.18,1815.78,155.62,1964.56l232.15,159.88,5.51-1.86,236.9-306.8M548,2451.12l-26.9-54.51-364.83,49.65,144.7,126.52,247-121.66m-28.92-58.57L390.79,2132.74,151.73,2442.32l.22.2,367.1-50m319.57,656L300.31,2577.87-61.77,2756.19l900.39,292.39M387.83,2129.64,152,1967.2-83,2739.4l470.83-609.76m-91,445.18L149.15,2445.69l-234,303,17.22,5.6,364.43-179.48m416.33,437.51L-67.28,2758.89l-33,16.28,813.47,237.16M-112.08,2776.2l39-19.19-18.78-6.1,1.64-2.13L148.34,1964.7l-2.36-1.62L634.24,1810l93.56-401,2,3.08L1623.33,1339l5.53-2.64-1.25,2.29,2.75-.23-4.86,4.09-433.19,794.77,4.07,6.38-5.44-3.2L850,3054l.48,2.77-.66-.2-.07,1.69-2.91-2.56-958.9-279.54m760.16-987.71a24.61,24.61,0,0,0-33.14,10.63c-.13.24-.25.48-.36.73a26.07,26.07,0,0,0,11.27,34.45A24.6,24.6,0,0,0,659,1823.68c.13-.25.26-.5.38-.76a26,26,0,0,0-11.27-34.43Zm34.46,226.06a19.12,19.12,0,0,0-25.76,8.26c-.11.19-.2.39-.3.59a20.25,20.25,0,0,0,8.76,26.77,19.13,19.13,0,0,0,25.77-8.25c.1-.19.19-.39.29-.59a20.26,20.26,0,0,0-8.75-26.78ZM409.17,2105a25.5,25.5,0,0,0-34.35,11l-.39.79a27,27,0,0,0,11.68,35.69,25.5,25.5,0,0,0,34.35-11c.14-.26.26-.52.39-.78a27,27,0,0,0-11.68-35.7Zm339.09-711.76A31.38,31.38,0,0,0,706,1406.82c-.17.31-.33.64-.48,1-7.83,16.15-1.4,35.82,14.39,43.93a31.37,31.37,0,0,0,42.27-13.54c.17-.32.33-.64.48-1a33.22,33.22,0,0,0-14.39-43.93ZM158.66,1945a25.46,25.46,0,0,0-34.29,11c-.13.26-.26.52-.38.78a26.94,26.94,0,0,0,11.65,35.63,25.48,25.48,0,0,0,34.31-11l.38-.76A27,27,0,0,0,158.67,1945Zm741-11a25.47,25.47,0,0,0-34.29,11c-.13.26-.26.53-.38.79a26.93,26.93,0,0,0,11.67,35.63,25.46,25.46,0,0,0,34.29-11l.38-.76A27,27,0,0,0,899.61,1934ZM157.07,2425.92a21.88,21.88,0,0,0-29.47,9.47l-.33.65a23.18,23.18,0,0,0,10,30.62,21.91,21.91,0,0,0,29.49-9.47l.31-.64A23.17,23.17,0,0,0,157.07,2425.92Zm1474.6-1100.85a21.89,21.89,0,0,0-29.48,9.45l-.33.66a23.19,23.19,0,0,0,10,30.62,21.89,21.89,0,0,0,29.47-9.46c.11-.22.22-.44.32-.66a23.14,23.14,0,0,0-10-30.61ZM736.79,2346.9a18.25,18.25,0,0,0-24.57,7.91c-.08.17-.17.34-.25.52a19.29,19.29,0,0,0,8.35,25.5,18.22,18.22,0,0,0,24.54-7.87c.1-.18.19-.37.27-.55A19.31,19.31,0,0,0,736.79,2346.9Z" transform="translate(690.77 553.7)"/><path id="Shape_copy" data-name="Shape copy" class="cls-4" d="M2318.25,557.23l228.66,754.07,322.64-52.8-551.3-701.27m-2.51,6.37,30.48,780.56L2542.67,1312,2315.74,563.6m228.16,752.47-193.6,31.68,236.77,110.66-43.17-142.34m321.16-52.57-316.92,51.86,44.11,145.48.48.22h0l2.11,1,34-25,236.26-173.61m6.42.56-272.3,200.1,290,138.68-17.66-338.78m4.34,1.16,17.72,339.72,676.11,323.35-693.83-663.07M2311.26,558.83l-281,837.05,310.16-50.77.78-1.63.76.35-30.67-785M2904.9,1770.28l-.56.35,657.39,158.52-667.95-319.46,8.35,159.92,2.77.67M2595.36,1467l-3.32,2.43L2574,1690.78l323.8,77.79-8.39-161-294-140.62m-248.89-116.4,11.16,285.8,230.29-169.22.3-3.59-241.75-113m-4.34-1.48-309.8,50.7,321,236.38-11.21-287.08m245.34,123.67-226.9,166.75,209.19,50.25,17.71-217m316.15,302.48-1,3.64,9.93,190.32,653.59-34.69-663.75-160,0,.44,1.22.34M2899,1791.9,2849,1972.58l59.31-3.15L2899,1791.9m-329.61-97.74-209.57-50.53,186.36,334.93,23.21-284.4m328.7,80.4L2559.4,1988l285-15.13,53.87-194.45-.2-3.81m-4.45-2.21-320-77.17-23.69,290.12,1.48,2.66,342.24-215.61m676.49,166.15-657.39,34.9L2927,2246.61l643.13-308.11m-1213-291.08-50.5,494.78L2545.09,1992l.47-5.8L2357.1,1647.42m551.38,326.2-60.71,3.22-98.3,354.82,173.35-83-14.34-275m-65.23,3.46-289.34,15.36,190.16,341.81.27-.13,98.91-357m728.89-34.85-644.9,309,21,403.06,623.88-712M2549.9,1993.94,2307.58,2146.6l616.88,520.54-374.56-673.2m373.16,259.26L2746.16,2338l186.12,334.54,11.94-13.62-21.16-405.67m566.27-210-540.75,617.15,1.92,36.78,538.83-653.93m-542.52,665.15-2.27-43.38-13,14.84-1.31-2.35-626.36-528.55-2.42,1.53,52-509-331.59-244.17,3.61-.59L2310.8,546.74l-.25-6.12,1.61,2,.88-2.62,1.84,6.08,559.42,711.6,7.46-1.22-5.08,3.73,705,673.71,2.74.65-.44.53,1.52.73-3.5,1.67-635.15,770.85M2339.09,1620.21a24.61,24.61,0,0,0-3.33,34.63c.18.22.36.43.55.64a26.07,26.07,0,0,0,36.1,3.23,24.62,24.62,0,0,0,3.31-34.65c-.18-.22-.36-.42-.54-.63A26.05,26.05,0,0,0,2339.09,1620.21Zm221.32,57.52a19.12,19.12,0,0,0-2.58,26.92c.14.18.28.34.43.51a20.24,20.24,0,0,0,28,2.51,19.12,19.12,0,0,0,2.6-26.91l-.44-.51a20.25,20.25,0,0,0-28.06-2.52Zm-24.71,286.89a25.51,25.51,0,0,0-3.42,35.92c.18.23.37.44.56.66a27,27,0,0,0,37.41,3.35,25.51,25.51,0,0,0,3.42-35.92c-.18-.22-.36-.44-.55-.65a27,27,0,0,0-37.42-3.36Zm-520.26-592.38a31.41,31.41,0,0,0-4.22,44.21l.69.8c11.75,13.57,32.36,15.41,46,4.11a31.38,31.38,0,0,0,4.24-44.18c-.23-.28-.47-.56-.71-.83a33.22,33.22,0,0,0-46-4.11Zm274.38,759.44a25.46,25.46,0,0,0-3.43,35.84c.18.23.38.45.57.67a27,27,0,0,0,37.34,3.34,25.47,25.47,0,0,0,3.43-35.85c-.18-.23-.37-.44-.56-.66a27,27,0,0,0-37.35-3.34ZM2572,1446.49a25.46,25.46,0,0,0-3.42,35.84l.57.67a26.94,26.94,0,0,0,37.34,3.33,25.47,25.47,0,0,0,3.42-35.86c-.18-.22-.36-.43-.55-.64a27,27,0,0,0-37.36-3.34Zm159.1,876.37a21.91,21.91,0,0,0-2.93,30.83l.47.55a23.18,23.18,0,0,0,32.09,2.87,21.91,21.91,0,0,0,2.93-30.83c-.15-.19-.31-.37-.47-.55a23.16,23.16,0,0,0-32.09-2.87ZM2301.27,533.58a21.9,21.9,0,0,0-2.93,30.84l.46.54a23.19,23.19,0,0,0,32.1,2.87,21.88,21.88,0,0,0,2.93-30.81c-.15-.19-.32-.38-.48-.57A23.16,23.16,0,0,0,2301.27,533.58ZM2887.2,1759a18.25,18.25,0,0,0-2.43,25.69l.39.45a19.31,19.31,0,0,0,26.73,2.38,18.23,18.23,0,0,0,2.44-25.66l-.39-.46A19.33,19.33,0,0,0,2887.2,1759Z" transform="translate(690.77 553.7)"/><path id="Shape-2" class="cls-5" d="M1788.11,916.47,1164.9,434.27,932.5,664.21l855.61,252.26m-1.64-6.64-477-618.6-141.5,140,618.51,478.58M1164.59,428.65l139.46-138-257.1,47,117.64,91M933.27,657.54l228.28-225.87-120.23-93-.52.09h0l-2.3.4-13.23,40-92,278.37m-5.57,3.27,106-320.84L717.06,394.89,927.7,660.8m-4.21,1.57L712.26,395.72-26.17,523.81,923.49,662.37m869.39,248.75L1537.06,66l-223.4,221.06.31,1.78-.83.16,479.74,622.1M607.21,267.53l.26-.61L-20.22,518.53,709.3,392,609.86,266.47l-2.65,1.06m428,67.92,1.3-3.9L923,140.63,614,264.8,714.1,391.15l321.13-55.7m270.3-49.3L1130.87,59.65,1041.19,331l1.83,3.1,262.51-47.94m4.41-1.31,223.14-220.8-398.59-6.72,175.45,227.52m-271.63,41.31L1126.66,58.8,927,139l111.28,187.14M605.38,262.74l-1.29-3.55L485.75,109.81-26.9,516.71l633.74-254-.27-.35-1.19.42m-5.89-16.25L535.63,70.22,489.1,107.15,599.49,246.49M924.78,135.23,1124.87,55,779-110,924.78,135.23M610.27,260.1,762.74-110,539.17,67.41l68.74,189.7,2.36,3m4.92-.78L920.75,136.84,772-113.36l-2.74-1.32-154.06,374M-32.49,515.78,483.15,106.51,313.26-107.93-32.49,515.78M1124.9,50.34,879.45-382.22,772.09-121.59l3,5L1124.9,50.34M486.5,103.86l47.62-37.79L408.7-280.1,315.51-112l171,215.85m51.16-40.61,227-180.13-353-168.46-.14.26L537.66,63.25M-36.28,513.89l346.7-625.42L59.79-427.89-36.28,513.89M767-120.43,876.1-385.24,71.72-452.18,767-120.43m-454.36,4.85,95.1-171.57L62.25-452l-1.84,18L312.66-115.58m-340,499.18L56-432.71,33.11-461.58-27.29,383.6M29.62-472.85l27,34,2-19.64L61-457.29l816.75,68,1.09-2.64,252.52,445L1543.12,60l-2.6,2.57,259.74,858.1,3.75,4.85-2.5-.74.8,2.65-5-3.89-868.22-256-5.37,5.32,2-6L-39.22,526.15l-2.62,1.06.06-.69-1.66.29,1.88-3.39L29.62-472.86m1125.73,535A24.6,24.6,0,0,0,1138,31.93l-.81-.2A26.06,26.06,0,0,0,1105.89,50a24.61,24.61,0,0,0,17.36,30.15l.82.21A26.06,26.06,0,0,0,1155.35,62.09ZM941.63,143.41A19.13,19.13,0,0,0,928.12,120l-.63-.16A20.26,20.26,0,0,0,903.17,134a19.12,19.12,0,0,0,13.49,23.44l.64.16A20.25,20.25,0,0,0,941.63,143.41Zm-146-248.16a25.53,25.53,0,0,0-18-31.27l-.84-.21a27,27,0,0,0-32.43,18.94,25.52,25.52,0,0,0,18,31.27l.82.21A27,27,0,0,0,795.58-104.75ZM1562.81,76.72a31.4,31.4,0,0,0-22.17-38.47l-1-.26c-17.44-4.25-35.31,6.18-39.92,23.32a31.41,31.41,0,0,0,22.17,38.48l1,.26C1540.34,104.31,1558.2,93.86,1562.81,76.72ZM899.23-383.36a25.46,25.46,0,0,0-18-31.2l-.85-.22A27,27,0,0,0,848-395.87a25.47,25.47,0,0,0,18,31.21c.28.08.55.15.83.21A27,27,0,0,0,899.23-383.36Zm166.89,722a25.47,25.47,0,0,0-18-31.21l-.84-.21a27,27,0,0,0-32.38,18.92,25.48,25.48,0,0,0,18,31.21l.81.2A27,27,0,0,0,1066.12,338.63ZM428.76-283.56a21.9,21.9,0,0,0-15.46-26.83l-.71-.17a23.18,23.18,0,0,0-27.82,16.25,21.9,21.9,0,0,0,15.48,26.83l.69.17A23.17,23.17,0,0,0,428.76-283.56ZM1815.65,925.92a21.9,21.9,0,0,0-15.46-26.84l-.7-.17a23.19,23.19,0,0,0-27.83,16.25A21.87,21.87,0,0,0,1787.12,942l.72.18A23.14,23.14,0,0,0,1815.65,925.92ZM628.17,266.48a18.24,18.24,0,0,0-12.88-22.35l-.59-.14a19.3,19.3,0,0,0-23.17,13.54,18.23,18.23,0,0,0,12.88,22.33l.59.15A19.3,19.3,0,0,0,628.17,266.48Z" transform="translate(690.77 553.7)"/><path id="Shape-3" class="cls-6" d="M2963.48,339.26,3402.94,745.7,3588.15,585,2963.48,339.26m.88,5.17L3287.73,845.7l112.77-97.88L2964.36,344.43M3402.87,750l-111.14,96.45,194.1-19.73-83-76.72m184.37-160L3405.3,747.89l84.78,78.41.39,0v0l1.74-.17,11.94-29.69L3587.24,590m4.31-2.14-95.76,237.91,238.94-22.08L3591.55,587.87m3.22-.93,143.58,216.42,557.13-51.51L3594.77,586.94M2959.65,343l146.68,660.09L3284.38,848.6l-.14-1.38.63-.06L2959.65,343M3810,907.63l-.22.45,481-152.57-550.41,50.88L3808,908.27l2-.64m-315.53-78.5-1.17,2.89L3568,984.62l236.81-75.34-68-102.56-242.29,22.4m-204.06,20.69,118.4,183.54,81-201.2-1.21-2.48-198.18,20.15m-3.35.72-177.85,154.34,296.79,30L3287,850.53M3491.67,836l-79.79,198.25,153-48.67L3491.67,836m319.42,75.38.78,2.78,80.43,121.25,403.36-278.1L3810,911.35l.19.29.9-.25m3.55,12.75,38.42,138.34,36.61-25.24-75-113.1m-248.28,64.48L3413,1037.27l249.27,147.4-95.93-196.05m240.95-75.52-132.94,272.58,175.91-121.28-41.37-148.88-1.6-2.42m-3.7.28-234.17,74.27,97.86,200,2,1.17,134.33-275.43m496.16-155-405.7,279.72,115.48,174,290.22-453.76m-887,282.45,160.45,345,93.6-191.94-2-4-252.1-149.08m478.69-.92L3854,1065.74l75.46,271.67,78.23-122.31-116.22-175.19m-40.26,27.76-178.56,123.11L3927,1341.22l.12-.19-75.94-273.36M4302.5,760.05l-291,455,170.35,256.78,120.67-711.8m-631.86,433.28-95.1,195,596.13,101.26-501-296.28m339,24.69-79.84,124.82,249,147.24,2.31-13.62L4009.6,1218M4289,858.79l-104.59,617,15.54,23.44L4289,858.79M4202,1508l-18.34-27.64-2.52,14.85-1.75-1-605.3-102.84-1,2-165.06-355-306.56-31,2.07-1.79L2954.64,335.28l-2.54-3.93,1.83.72-.46-2.07,3.54,3.28L3590.88,582.6l4.29-3.72-1.79,4.44,711.95,167.57,2-.64-.07.52,1.25-.12-1.58,2.47L4202,1508m-811.31-478a19.13,19.13,0,1,0,24.27-12,19.13,19.13,0,0,0-24.27,12Zm163.55-48.64a14.88,14.88,0,1,0,18.88-9.3,14.89,14.89,0,0,0-18.88,9.3Zm96,198.27a19.84,19.84,0,1,0,25.17-12.41h0A19.85,19.85,0,0,0,3650.17,1179.6ZM3087.69,993.36a24.42,24.42,0,1,0,31-15.28,24.42,24.42,0,0,0-31,15.28Zm470.7,392.11a19.81,19.81,0,1,0,25.13-12.39h0a19.81,19.81,0,0,0-25.13,12.38Zm-86.8-560.7a19.8,19.8,0,1,0,25.13-12.39,19.8,19.8,0,0,0-25.13,12.39v0Zm442.71,514a17,17,0,1,0,21.59-10.66,17,17,0,0,0-21.59,10.66ZM2943.44,330.34A17,17,0,1,0,2965,319.71h0A17,17,0,0,0,2943.44,330.34ZM3794.3,907.12a14.17,14.17,0,1,0,18-8.87A14.17,14.17,0,0,0,3794.3,907.12Z" transform="translate(690.77 553.7)"/></g></g></svg>