<?xml version="1.0" encoding="utf-8"?>
<!-- Generator: Adobe Illustrator 24.2.3, SVG Export Plug-In . SVG Version: 6.00 Build 0)  -->
<svg version="1.1" xmlns="http://www.w3.org/2000/svg" xmlns:xlink="http://www.w3.org/1999/xlink" x="0px" y="0px"
	 viewBox="0 0 3556 2000" style="enable-background:new 0 0 3556 2000;" xml:space="preserve">
<style type="text/css">
	.st0{fill-rule:evenodd;clip-rule:evenodd;fill:url(#SVGID_1_);}
	.st1{opacity:0.55;}
	.st2{opacity:0.42;fill-rule:evenodd;clip-rule:evenodd;fill:#30C41C;enable-background:new    ;}
	.st3{opacity:0.42;fill-rule:evenodd;clip-rule:evenodd;fill:#33CC33;enable-background:new    ;}
	.st4{opacity:0.32;fill-rule:evenodd;clip-rule:evenodd;fill:#66FF66;enable-background:new    ;}
	.st5{opacity:0.33;fill-rule:evenodd;clip-rule:evenodd;fill:#30C41C;enable-background:new    ;}
</style>
<g id="Layer_2">
	<linearGradient id="SVGID_1_" gradientUnits="userSpaceOnUse" x1="-493.0938" y1="-265.9255" x2="3837.1189" y2="2148.3723">
		<stop  offset="6.393348e-08" style="stop-color:#333333"/>
		<stop  offset="0.1622" style="stop-color:#2A2A2A"/>
		<stop  offset="1" style="stop-color:#000000"/>
	</linearGradient>
	<rect class="st0" width="3577.1" height="2012.4"/>
</g>
<g id="Layer_1">
	<g id="Design" class="st1">
		<path id="Shape" class="st2" d="M1620.3,1165.2l-666.9,419.7l136.1,297.2L1620.3,1165.2 M1613.5,1164.4L868.7,1400l82.9,181
			L1613.5,1164.4 M948,1583.3l-81.7-178.4l-44.2,257.6L948,1583.3 M1083.6,1879.1l-133.7-292l-128.7,81l-0.1,0.5l0,0l-0.4,2.3
			l33.1,26.2L1083.6,1879.1 M1084.7,1885.5l-264.9-209.8L762.6,1992L1084.7,1885.5 M1084.7,1890l-323,106.8l-133.3,737.5
			L1084.7,1890 M1616.9,1158.9l-881.6-49.9l130.9,285.7l1.8,0.3l-0.1,0.8L1616.9,1158.9 M605.3,2051.4l-0.5-0.5l20.8,675.9
			l131.7-728.6l-152,50.3L605.3,2051.4 M816.1,1672.8l-3.2-2.5l-218.3,41.1l10.5,332.9l153-50.6L816.1,1672.8 M862.6,1402
			l-272.7,86.3l224,177.4l3.5-0.7L862.6,1402 M862.9,1397.4L732.1,1112L589,1484.1L862.9,1397.4 M808.4,1666.7l-220.8-174.8l6.8,215
			L808.4,1666.7 M600.2,2051.5l-3.8,0l-180.9,59.8l206.1,621.2l-21-682.4l-0.4,0.1L600.2,2051.5 M582.9,2051.5l-187.5-0.6l18.7,56.4
			L582.9,2051.5 M590.1,1707.8l-6.6-215.5l-273.8,268.2L590.1,1707.8 M599.4,2046l-295.3-270.3l89.9,270.9l201.8,0.6L599.4,2046
			 M600.3,2041.1l-10.1-329l-286.1,53.8l-2.2,2.1L600.3,2041.1 M618.8,2737.5l-207.3-624.8l-259.7,85.9L618.8,2737.5 M579.1,1490.6
			l-490.5,82L296.5,1763l5.7-1.1L579.1,1490.6 M410.1,2108.6l-19.1-57.7l-368.2-1.1l125.9,145.2L410.1,2108.6 M389.6,2046.6
			l-91.2-275L18.9,2045.3l0.2,0.2L389.6,2046.6 M615.7,2740.4L147.4,2200l-383.2,126.7L615.7,2740.4 M295.8,1768.1L84.6,1574.8
			l-339.1,732.5L295.8,1768.1 M144.3,2196.5L15.9,2048.3l-273.5,267.9l16.3,7.9L144.3,2196.5 M496.4,2687.2l-738.1-358.5l-35,11.6
			L496.4,2687.2 M-288.4,2339.7l41.2-13.6l-17.8-8.6l1.9-1.9l344.3-743.7l-2.1-1.9l504.7-84.4l147.9-384.3l1.5,3.3l895.1,50.7
			l5.8-1.9l-1.6,2.1l2.8,0.2l-5.4,3.4l-538.5,727.5l3.2,6.9l-4.9-3.9l-463.6,857.9l0.1,2.8l-0.6-0.3l-0.3,1.7l-2.5-2.9
			L-288.4,2339.7 M600.6,1466.1c-11.1-7.8-26.5-5.2-34.3,6c-0.2,0.2-0.3,0.4-0.5,0.7c-7.8,11.7-5,27.5,6.4,35.7
			c11.1,7.8,26.5,5.2,34.3-6c0.2-0.2,0.3-0.5,0.5-0.7C614.8,1490.1,612,1474.3,600.6,1466.1L600.6,1466.1z M603.6,1694.7
			c-8.6-6.1-20.6-4-26.7,4.6c-0.1,0.2-0.3,0.4-0.4,0.5c-6.1,9.1-3.9,21.3,5,27.7c8.6,6.1,20.6,4,26.7-4.6c0.1-0.2,0.3-0.4,0.4-0.5
			C614.6,1713.4,612.4,1701.1,603.6,1694.7L603.6,1694.7z M320.3,1746.7c-11.5-8.1-27.4-5.3-35.5,6.2c-0.2,0.2-0.3,0.5-0.5,0.7
			c-8.1,12.1-5.2,28.5,6.7,37c11.5,8.1,27.4,5.3,35.5-6.2c0.2-0.2,0.3-0.5,0.5-0.7C335.1,1771.6,332.2,1755.2,320.3,1746.7
			L320.3,1746.7z M754.2,1088.4c-14.2-10-33.8-6.6-43.7,7.6c-0.2,0.3-0.4,0.6-0.6,0.9c-10,14.9-6.3,35.3,8.2,45.5
			c14.2,10,33.8,6.6,43.7-7.6c0.2-0.3,0.4-0.6,0.6-0.9C772.4,1119,768.8,1098.6,754.2,1088.4L754.2,1088.4z M94.3,1553.7
			c-11.5-8.1-27.4-5.3-35.5,6.2c-0.2,0.2-0.3,0.5-0.5,0.7c-8.1,12.1-5.2,28.4,6.6,36.9c11.5,8.1,27.4,5.3,35.5-6.2
			c0.2-0.2,0.3-0.5,0.5-0.7C109,1578.5,106.1,1562.2,94.3,1553.7L94.3,1553.7z M829.7,1644.9c-11.5-8.1-27.4-5.3-35.5,6.2
			c-0.2,0.2-0.3,0.5-0.5,0.7c-8.1,12.1-5.2,28.4,6.7,36.9c11.5,8.1,27.4,5.3,35.5-6.2c0.2-0.2,0.3-0.5,0.5-0.7
			C844.4,1669.7,841.5,1653.3,829.7,1644.9z M26.4,2029.8c-9.9-7-23.5-4.6-30.5,5.3c-0.1,0.2-0.3,0.4-0.4,0.6
			c-7,10.4-4.4,24.4,5.7,31.7c9.9,7,23.6,4.6,30.5-5.3c0.1-0.2,0.3-0.4,0.4-0.6C39.1,2051.1,36.6,2037.1,26.4,2029.8z
			 M1638.6,1142.6c-9.9-7-23.5-4.6-30.5,5.3c-0.1,0.2-0.3,0.4-0.4,0.6c-7,10.4-4.4,24.4,5.7,31.7c9.9,7,23.5,4.6,30.5-5.3
			c0.1-0.2,0.3-0.4,0.4-0.6C1651.3,1163.9,1648.8,1149.9,1638.6,1142.6L1638.6,1142.6z M611.5,2031.4c-8.2-5.8-19.6-3.8-25.4,4.4
			c-0.1,0.2-0.2,0.3-0.3,0.5c-5.8,8.6-3.7,20.3,4.8,26.4c8.2,5.8,19.6,3.8,25.4-4.4c0.1-0.2,0.2-0.3,0.3-0.5
			C622.1,2049.2,620,2037.5,611.5,2031.4z"/>
		<path id="Shape_copy" class="st3" d="M2284.3,557.2l228.7,754.1l322.6-52.8L2284.3,557.2 M2281.7,563.6l30.5,780.6l196.5-32.2
			L2281.7,563.6 M2509.9,1316.1l-193.6,31.7l236.8,110.7L2509.9,1316.1 M2831.1,1263.5l-316.9,51.9l44.1,145.5l0.5,0.2l0,0l2.1,1
			l34-25L2831.1,1263.5 M2837.5,1264.1l-272.3,200.1l290,138.7L2837.5,1264.1 M2841.8,1265.2l17.7,339.7l676.1,323.3L2841.8,1265.2
			 M2277.3,558.8l-281,837l310.2-50.8l0.8-1.6l0.8,0.3L2277.3,558.8 M2870.9,1770.3l-0.6,0.3l657.4,158.5l-667.9-319.5l8.4,159.9
			L2870.9,1770.3 M2561.4,1467l-3.3,2.4l-18.1,221.4l323.8,77.8l-8.4-161L2561.4,1467 M2312.5,1350.6l11.2,285.8l230.3-169.2
			l0.3-3.6L2312.5,1350.6 M2308.1,1349.1l-309.8,50.7l321,236.4L2308.1,1349.1 M2553.5,1472.8l-226.9,166.8l209.2,50.3
			L2553.5,1472.8 M2869.6,1775.2l-1,3.6l9.9,190.3l653.6-34.7l-663.8-160.1l0,0.4L2869.6,1775.2 M2865,1791.9l-50.1,180.7l59.3-3.2
			L2865,1791.9 M2535.4,1694.2l-209.6-50.5l186.4,334.9L2535.4,1694.2 M2864.1,1774.6L2525.4,1988l285-15.1l53.9-194.4
			L2864.1,1774.6 M2859.7,1772.4l-320-77.2l-23.7,290.1l1.5,2.7L2859.7,1772.4 M3536.1,1938.5l-657.4,34.9l14.3,273.2L3536.1,1938.5
			 M2323.1,1647.4l-50.5,494.8l238.5-150.3l0.5-5.8L2323.1,1647.4 M2874.5,1973.6l-60.7,3.2l-98.3,354.8l173.4-83.1L2874.5,1973.6
			 M2809.3,1977.1l-289.3,15.4l190.2,341.8l0.3-0.1L2809.3,1977.1 M3538.1,1942.2l-644.9,309l21,403.1L3538.1,1942.2 M2515.9,1993.9
			l-242.3,152.7l616.9,520.5L2515.9,1993.9 M2889.1,2253.2l-176.9,84.8l186.1,334.5l11.9-13.6L2889.1,2253.2 M3455.3,2043.2
			l-540.8,617.2l1.9,36.8L3455.3,2043.2 M2912.8,2708.4l-2.3-43.4l-13,14.8l-1.3-2.4l-626.4-528.6l-2.4,1.5l52-509.1l-331.6-244.2
			l3.6-0.6l285.4-849.9l-0.3-6.1l1.6,2.1l0.9-2.6l1.8,6.1l559.4,711.6l7.5-1.2l-5.1,3.7l705,673.7l2.7,0.7l-0.4,0.5l1.5,0.7
			l-3.5,1.7L2912.8,2708.4 M2305.1,1620.2c-10.5,8.6-12,24.1-3.3,34.6c0.2,0.2,0.4,0.4,0.5,0.6c9.2,10.6,25.2,12.1,36.1,3.2
			c10.5-8.7,12-24.2,3.3-34.7c-0.2-0.2-0.4-0.4-0.5-0.6C2332,1612.8,2316,1611.4,2305.1,1620.2z M2526.4,1677.7
			c-8.1,6.7-9.3,18.8-2.6,26.9c0.1,0.2,0.3,0.3,0.4,0.5c7.1,8.3,19.6,9.4,28.1,2.5c8.1-6.7,9.3-18.8,2.6-26.9
			c-0.1-0.2-0.3-0.3-0.4-0.5C2547.3,1672,2534.9,1670.9,2526.4,1677.7L2526.4,1677.7z M2501.7,1964.6c-10.9,9-12.4,25.1-3.4,35.9
			c0.2,0.2,0.4,0.4,0.6,0.7c9.5,11,26.1,12.5,37.4,3.3c10.9-9,12.4-25.1,3.4-35.9c-0.2-0.2-0.4-0.4-0.6-0.6
			C2529.6,1957,2513,1955.5,2501.7,1964.6L2501.7,1964.6z M1981.4,1372.2c-13.4,11-15.3,30.8-4.2,44.2c0.2,0.3,0.5,0.5,0.7,0.8
			c11.8,13.6,32.4,15.4,46,4.1c13.4-11,15.3-30.8,4.2-44.2c-0.2-0.3-0.5-0.6-0.7-0.8C2015.8,1362.8,1995.4,1361,1981.4,1372.2
			L1981.4,1372.2z M2255.8,2131.7c-10.8,8.9-12.4,25-3.4,35.8c0.2,0.2,0.4,0.4,0.6,0.7c9.5,11,26,12.5,37.3,3.3
			c10.8-9,12.4-25,3.4-35.9c-0.2-0.2-0.4-0.4-0.6-0.7C2283.7,2124,2267.1,2122.5,2255.8,2131.7L2255.8,2131.7z M2538,1446.5
			c-10.8,9-12.4,25-3.4,35.8c0.2,0.2,0.4,0.4,0.6,0.7c9.5,11,26,12.5,37.3,3.3c10.8-9,12.4-25,3.4-35.9c-0.2-0.2-0.4-0.4-0.5-0.6
			C2565.9,1438.8,2549.3,1437.3,2538,1446.5L2538,1446.5z M2697.1,2322.9c-9.3,7.7-10.6,21.5-2.9,30.8c0.2,0.2,0.3,0.4,0.5,0.5
			c8.2,9.4,22.4,10.7,32.1,2.9c9.3-7.7,10.6-21.5,2.9-30.8c-0.2-0.2-0.3-0.4-0.5-0.5C2721,2316.3,2706.8,2315,2697.1,2322.9
			L2697.1,2322.9z M2267.3,533.6c-9.3,7.7-10.6,21.5-2.9,30.8c0.1,0.2,0.3,0.4,0.5,0.5c8.2,9.5,22.4,10.7,32.1,2.9
			c9.3-7.7,10.6-21.5,2.9-30.8c-0.2-0.2-0.3-0.4-0.5-0.6C2291.2,527,2277,525.7,2267.3,533.6z M2853.2,1759
			c-7.8,6.4-8.9,17.9-2.4,25.7c0.1,0.2,0.3,0.3,0.4,0.5c6.8,7.9,18.6,8.9,26.7,2.4c7.8-6.4,8.9-17.9,2.4-25.7
			c-0.1-0.2-0.3-0.3-0.4-0.5C2873.1,1753.5,2861.3,1752.5,2853.2,1759z"/>
		<path id="Shape-2" class="st4" d="M1786.1,939.5l-623.2-482.2L930.5,687.2L1786.1,939.5 M1784.5,932.8l-477-618.6l-141.5,140
			L1784.5,932.8 M1162.6,451.6l139.5-138l-257.1,47L1162.6,451.6 M931.3,680.5l228.3-225.9l-120.2-93l-0.5,0.1v0l-2.3,0.4l-13.2,40
			L931.3,680.5 M925.7,683.8l106-320.8l-316.7,54.9L925.7,683.8 M921.5,685.4L710.3,418.7L-28.2,546.8L921.5,685.4 M1790.9,934.1
			L1535.1,89l-223.4,221.1l0.3,1.8l-0.8,0.2L1790.9,934.1 M605.2,290.5l0.3-0.6L-22.2,541.5L707.3,415l-99.4-125.5L605.2,290.5
			 M1033.2,358.4l1.3-3.9L921,163.6L612,287.8l100.1,126.4L1033.2,358.4 M1303.5,309.1L1128.9,82.6L1039.2,354l1.8,3.1L1303.5,309.1
			 M1307.9,307.9l223.1-220.8l-398.6-6.7L1307.9,307.9 M1036.3,349.2l88.4-267.4L925,162L1036.3,349.2 M603.4,285.7l-1.3-3.5
			L483.8,132.8L-28.9,539.7l633.7-254l-0.3-0.4L603.4,285.7 M597.5,269.5L533.6,93.2l-46.5,36.9L597.5,269.5 M922.8,158.2L1122.9,78
			L777-87L922.8,158.2 M608.3,283.1L760.7-87L537.2,90.4l68.7,189.7L608.3,283.1 M613.2,282.3l305.6-122.5L770-90.4l-2.7-1.3
			L613.2,282.3 M-34.5,538.8l515.6-409.3L311.3-84.9L-34.5,538.8 M1122.9,73.3L877.4-359.2L770.1-98.6l3,5L1122.9,73.3 M484.5,126.9
			l47.6-37.8L406.7-257.1L313.5-89L484.5,126.9 M535.7,86.2l227-180.1l-353-168.5l-0.1,0.3L535.7,86.2 M-38.3,536.9L308.4-88.5
			L57.8-404.9L-38.3,536.9 M765-97.4l109.1-264.8L69.7-429.2L765-97.4 M310.7-92.6l95.1-171.6L60.3-429l-1.8,18L310.7-92.6
			 M-29.3,406.6L54-409.7l-22.9-28.9L-29.3,406.6 M27.6-449.9l27,34l2-19.6l2.4,1.2l816.7,68l1.1-2.6l252.5,445l411.7,6.9l-2.6,2.6
			l259.7,858.1l3.8,4.8l-2.5-0.7l0.8,2.6l-5-3.9l-868.2-256l-5.4,5.3l2-6L-41.2,549.2l-2.6,1.1l0.1-0.7l-1.7,0.3l1.9-3.4L27.6-449.9
			 M1153.3,85.1c3.5-13.1-4.2-26.6-17.3-30.2c-0.3-0.1-0.5-0.1-0.8-0.2c-13.7-3.3-27.5,4.7-31.3,18.3c-3.5,13.1,4.2,26.6,17.4,30.2
			c0.3,0.1,0.5,0.1,0.8,0.2C1135.7,106.7,1149.6,98.6,1153.3,85.1z M939.6,166.4c2.7-10.2-3.3-20.7-13.5-23.5
			c-0.2-0.1-0.4-0.1-0.6-0.2c-10.6-2.6-21.4,3.7-24.3,14.2c-2.7,10.2,3.3,20.7,13.5,23.4c0.2,0.1,0.4,0.1,0.6,0.2
			C925.9,183.2,936.7,176.9,939.6,166.4z M793.6-81.8c3.7-13.6-4.4-27.6-18-31.3c-0.3-0.1-0.6-0.1-0.8-0.2
			c-14.1-3.5-28.5,4.9-32.4,18.9c-3.7,13.6,4.4,27.6,18,31.3c0.3,0.1,0.5,0.1,0.8,0.2C775.3-59.3,789.6-67.7,793.6-81.8z
			 M1560.8,99.7c4.5-16.7-5.4-34-22.2-38.5c-0.3-0.1-0.7-0.2-1-0.3c-17.4-4.3-35.3,6.2-39.9,23.3c-4.5,16.7,5.4,34,22.2,38.5
			c0.3,0.1,0.7,0.2,1,0.3C1538.3,127.3,1556.2,116.9,1560.8,99.7z M897.2-360.4c3.7-13.6-4.4-27.5-18-31.2c-0.3-0.1-0.6-0.1-0.9-0.2
			c-14.1-3.5-28.4,4.9-32.4,18.9c-3.7,13.6,4.4,27.6,18,31.2c0.3,0.1,0.6,0.1,0.8,0.2C879-338,893.3-346.4,897.2-360.4z
			 M1064.1,361.6c3.7-13.6-4.4-27.6-18-31.2c-0.3-0.1-0.6-0.1-0.8-0.2c-14.1-3.5-28.5,4.9-32.4,18.9c-3.6,13.6,4.4,27.6,18,31.2
			c0.3,0.1,0.5,0.1,0.8,0.2C1045.9,384,1060.2,375.6,1064.1,361.6z M426.8-260.6c3.1-11.7-3.8-23.7-15.5-26.8
			c-0.2-0.1-0.5-0.1-0.7-0.2c-12.1-3-24.4,4.2-27.8,16.3c-3.1,11.7,3.8,23.7,15.5,26.8c0.2,0.1,0.5,0.1,0.7,0.2
			C411.1-241.3,423.4-248.5,426.8-260.6z M1813.7,948.9c3.1-11.7-3.8-23.7-15.5-26.8c-0.2-0.1-0.5-0.1-0.7-0.2
			c-12.1-3-24.5,4.2-27.8,16.3c-3.1,11.7,3.8,23.7,15.5,26.8c0.2,0.1,0.5,0.1,0.7,0.2C1798,968.1,1810.3,960.9,1813.7,948.9z
			 M626.2,289.5c2.6-9.7-3.2-19.7-12.9-22.3c-0.2-0.1-0.4-0.1-0.6-0.1c-10.1-2.5-20.4,3.5-23.2,13.5c-2.6,9.7,3.2,19.7,12.9,22.3
			c0.2,0.1,0.4,0.1,0.6,0.1C613.1,305.5,623.4,299.5,626.2,289.5z"/>
		<path id="Shape-3" class="st5" d="M2722.3,760.8L3208.1,313L3042.3,99.4L2722.3,760.8 M2728.1,760.2l583.1-314.3l-101-130.1
			L2728.1,760.2 M3212.9,313.4l99.5,128.2l-7.8-212.7L3212.9,313.4 M3047.8,100.8l162.9,209.9l93.7-86.4l0-0.4l0,0l-0.1-1.9
			l-32.3-15.2L3047.8,100.8 M3045.7,95.9L3304.2,218l-7.1-261.7L3045.7,95.9 M3044.9,92.4l252-140l-16.7-610.2L3044.9,92.4
			 M2726.3,765.2l747.4-110.1l-159.4-205.4l-1.5,0l0-0.7L2726.3,765.2 M3418.6-117.8l0.5,0.3l-135-534.9l16.5,602.8l118.6-65.9
			L3418.6-117.8 M3307.9,219.7l3.1,1.5l175.8-69.8L3420-112l-119.4,66.3L3307.9,219.7 M3316,443.3l213.5-115.1L3310.9,225l-2.9,1.1
			L3316,443.3 M3316.6,447l159.2,205.1l55.2-320.7L3316.6,447 M3315.4,223.3L3530.8,325l-43.1-170.2L3315.4,223.3 M3422.9-118.7
			l3.2-0.6l141.2-78.4l-280.8-459.8l136.3,540.1l0.3-0.2L3422.9-118.7 M3437.4-121.6l157.2-31.4l-25.5-41.7L3437.4-121.6
			 M3491.1,153.4l43.1,170.5l182.7-260.2L3491.1,153.4 M3424.5-114.5L3719,50.7l-122.5-200.5L3427.3-116L3424.5-114.5 M3424.5-110.4
			l65.7,260.4l230.4-91.5l1.5-2.1L3424.5-110.4 M3287.9-662l282.5,462.5L3773-312.1L3287.9-662 M3538.2,324.5l396.8-148.7
			L3727.6,59.5l-4.6,1.8L3538.2,324.5 M3572.2-196.5l26.1,42.7l308.7-61.7l-130.8-94.3L3572.2-196.5 M3600.2-150.6L3724.5,53
			L3911-212.6l-0.2-0.1L3600.2-150.6 M3289.9-664.9L3776.4-314l299-166.1L3289.9-664.9 M3727.2,55.3l210.7,118.1l156.6-641.2
			L3727.2,55.3 M3779.6-311.7l133.5,96.3l182.5-259.9l-15-3.5L3779.6-311.7 M3399.2-642.8L4080-482.6l27.3-15.2L3399.2-642.8
			 M4117.3-499.3l-32.2,17.9l16.4,3.9l-1.3,1.8l-159.1,651l2.1,1.2l-408.2,153L3478,660.7l-1.8-2.4l-758.9,111.8l-4.6,2.5l0.9-1.9
			l-2.3,0.3l3.9-3.6l324.6-671.1l-3.8-4.9l4.8,2.3l239.1-762.2l-0.6-2.2l0.6,0.1l0-1.4l2.6,1.9L4117.3-499.3 M3524.4,347.7
			c10.9,4.4,23.4-0.6,28-11.2c4.5-10.6-0.7-22.9-11.6-27.3c-10.9-4.4-23.4,0.6-27.9,11.2C3508.3,331.1,3513.5,343.3,3524.4,347.7
			C3524.4,347.7,3524.4,347.7,3524.4,347.7z M3482.1,166.1c8.5,3.5,18.2-0.4,21.7-8.7c3.5-8.3-0.5-17.8-9-21.2
			c-8.5-3.5-18.2,0.4-21.7,8.7C3469.6,153.1,3473.6,162.6,3482.1,166.1C3482.1,166.1,3482.1,166.1,3482.1,166.1z M3710.4,76.6
			c11.3,4.6,24.3-0.6,29-11.6c4.7-11-0.7-23.7-12-28.3c-11.3-4.6-24.3,0.6-29,11.6c0,0,0,0,0,0C3693.7,59.3,3699.1,71.9,3710.4,76.6
			z M3461.4,674.7c13.9,5.7,29.9-0.7,35.7-14.3c5.8-13.6-0.9-29.2-14.8-34.8c-13.9-5.7-29.9,0.7-35.7,14.3
			C3440.8,653.4,3447.4,669,3461.4,674.7C3461.4,674.7,3461.4,674.7,3461.4,674.7z M3933.4,191.9c11.3,4.6,24.3-0.6,29-11.6
			s-0.7-23.7-12-28.3c-11.3-4.6-24.3,0.6-29,11.6c0,0,0,0,0,0C3916.8,174.6,3922.1,187.3,3933.4,191.9
			C3933.4,191.9,3933.4,191.9,3933.4,191.9z M3301.3,244.3c11.3,4.6,24.3-0.6,28.9-11.6c4.7-11-0.7-23.7-12-28.3
			c-11.3-4.6-24.2,0.6-28.9,11.6C3284.7,227,3290,239.6,3301.3,244.3C3301.3,244.3,3301.3,244.3,3301.3,244.3L3301.3,244.3z
			 M3907.4-198.9c9.7,3.9,20.8-0.5,24.9-10c4-9.5-0.6-20.3-10.3-24.3c-9.7-3.9-20.8,0.5-24.8,10
			C3893.1-213.8,3897.7-202.9,3907.4-198.9C3907.4-198.9,3907.4-198.9,3907.4-198.9z M2710.9,781.9c9.7,4,20.8-0.5,24.9-10
			c4-9.5-0.6-20.3-10.3-24.3c-9.7-4-20.8,0.5-24.9,10c0,0,0,0,0,0C2696.6,767.1,2701.2,778,2710.9,781.9z M3416.9-100.8
			c8.1,3.3,17.4-0.4,20.7-8.3s-0.5-16.9-8.6-20.2c-8.1-3.3-17.4,0.4-20.7,8.3C3404.9-113.1,3408.8-104,3416.9-100.8z"/>
	</g>
</g>
</svg>
