<?xml version="1.0" encoding="utf-8"?>
<!-- Generator: Adobe Illustrator 24.2.3, SVG Export Plug-In . SVG Version: 6.00 Build 0)  -->
<svg version="1.1" xmlns="http://www.w3.org/2000/svg" xmlns:xlink="http://www.w3.org/1999/xlink" x="0px" y="0px"
	 viewBox="0 0 3556 2000" style="enable-background:new 0 0 3556 2000;" xml:space="preserve">
<style type="text/css">
	.st0{fill-rule:evenodd;clip-rule:evenodd;fill:url(#SVGID_1_);}
	.st1{opacity:0.55;}
	.st2{opacity:0.42;fill-rule:evenodd;clip-rule:evenodd;fill:#30C41C;enable-background:new    ;}
	.st3{opacity:0.42;fill-rule:evenodd;clip-rule:evenodd;fill:#33CC33;enable-background:new    ;}
	.st4{opacity:0.32;fill-rule:evenodd;clip-rule:evenodd;fill:#66FF66;enable-background:new    ;}
	.st5{opacity:0.33;fill-rule:evenodd;clip-rule:evenodd;fill:#30C41C;enable-background:new    ;}
</style>
<g id="Layer_2">
	<linearGradient id="SVGID_1_" gradientUnits="userSpaceOnUse" x1="-493.0938" y1="-265.9255" x2="3837.1189" y2="2148.3723">
		<stop  offset="6.393348e-08" style="stop-color:#333333"/>
		<stop  offset="0.1622" style="stop-color:#2A2A2A"/>
		<stop  offset="1" style="stop-color:#000000"/>
	</linearGradient>
	<rect class="st0" width="3577.1" height="2012.4"/>
</g>
<g id="Layer_1">
	<g id="Design" class="st1">
		<path id="Shape" class="st2" d="M1616.6,1350l-602.7,507.6l175.8,275.6L1616.6,1350 M1609.8,1350.2l-705.2,335.9l107,167.8
			L1609.8,1350.2 M1008.4,1856.7l-105.5-165.4l-8.3,261.2L1008.4,1856.7 M1183.4,2131.1l-172.7-270.8l-116.3,97.9l0,0.5l0,0
			l-0.1,2.3l36.3,21.4L1183.4,2131.1 M1185.4,2137.2l-291.3-171.3l-13,321.2L1185.4,2137.2 M1186,2141.6l-305.2,150.3l-30.4,748.8
			L1186,2141.6 M1612.4,1344.2l-880,72l169,265l1.8,0.1l0,0.8L1612.4,1344.2 M733.4,2367.6l-0.5-0.4l113.7,666.6l30-739.8
			l-143.7,70.8L733.4,2367.6 M890,1963.5l-3.5-2.1l-210.6,70.7l56.3,328.2l144.6-71.2L890,1963.5 M898.8,1688.9l-258.2,123
			l246.4,144.8l3.4-1.1L898.8,1688.9 M898.4,1684.3l-168.8-264.7L639,1807.9L898.4,1684.3 M881.6,1958.6l-242.7-142.7l36.3,212.1
			L881.6,1958.6 M728.3,2368.4l-3.7,0.5l-171,84.2L843.3,3040l-114.8-673.1l-0.4,0.2L728.3,2368.4 M711.2,2370.7L525.4,2396
			l26.3,53.3L711.2,2370.7 M671,2029.3l-36.2-212.5l-234.2,303.4L671,2029.3 M726.8,2363.1L397.1,2136L523.4,2392l199.9-27.2
			L726.8,2363.1 M727,2358.1l-55.3-324.5l-275.9,92.7l-1.9,2.4L727,2358.1 M841.2,3045.3L549.8,2455l-245.4,120.9L841.2,3045.3
			 M630.2,1815.8l-474.6,148.8l232.1,159.9l5.5-1.9L630.2,1815.8 M548,2451.1l-26.9-54.5l-364.8,49.6l144.7,126.5L548,2451.1
			 M519,2392.5l-128.3-259.8l-239.1,309.6l0.2,0.2L519,2392.5 M838.6,3048.6l-538.3-470.7l-362.1,178.3L838.6,3048.6 M387.8,2129.6
			L152,1967.2l-235,772.2L387.8,2129.6 M296.8,2574.8l-147.7-129.1l-234,303l17.2,5.6L296.8,2574.8 M713.1,3012.3l-780.4-253.4
			l-33,16.3L713.1,3012.3 M-112.1,2776.2l39-19.2l-18.8-6.1l1.6-2.1l238.6-784.1l-2.4-1.6L634.2,1810l93.6-401l2,3.1l893.6-73.1
			l5.5-2.6l-1.3,2.3l2.8-0.2l-4.9,4.1l-433.2,794.8l4.1,6.4l-5.4-3.2L850,3054l0.5,2.8l-0.7-0.2l-0.1,1.7l-2.9-2.6L-112.1,2776.2
			 M648.1,1788.5c-12.1-6.2-26.9-1.5-33.1,10.6c-0.1,0.2-0.2,0.5-0.4,0.7c-6.1,12.6-1.2,27.9,11.3,34.4c12.1,6.2,26.9,1.5,33.1-10.6
			c0.1-0.3,0.3-0.5,0.4-0.8C665.5,1810.3,660.5,1795,648.1,1788.5L648.1,1788.5z M682.5,2014.6c-9.4-4.8-20.9-1.1-25.8,8.3
			c-0.1,0.2-0.2,0.4-0.3,0.6c-4.8,9.8-0.9,21.7,8.8,26.8c9.4,4.8,20.9,1.1,25.8-8.2c0.1-0.2,0.2-0.4,0.3-0.6
			C696.1,2031.5,692.2,2019.7,682.5,2014.6L682.5,2014.6z M409.2,2105c-12.5-6.4-27.9-1.5-34.3,11c-0.1,0.3-0.3,0.5-0.4,0.8
			c-6.4,13.1-1.2,28.9,11.7,35.7c12.5,6.4,27.9,1.5,34.4-11c0.1-0.3,0.3-0.5,0.4-0.8C427.2,2127.6,422.1,2111.8,409.2,2105
			L409.2,2105z M748.3,1393.3c-15.4-7.9-34.3-1.9-42.3,13.5c-0.2,0.3-0.3,0.6-0.5,1c-7.8,16.2-1.4,35.8,14.4,43.9
			c15.4,7.9,34.3,1.9,42.3-13.5c0.2-0.3,0.3-0.6,0.5-1C770.5,1421.1,764,1401.4,748.3,1393.3L748.3,1393.3z M158.7,1945
			c-12.5-6.4-27.9-1.5-34.3,11c-0.1,0.3-0.3,0.5-0.4,0.8c-6.4,13.1-1.2,28.8,11.7,35.6c12.5,6.4,27.9,1.5,34.3-11
			c0.1-0.3,0.3-0.5,0.4-0.8C176.7,1967.5,171.5,1951.8,158.7,1945L158.7,1945z M899.6,1934c-12.5-6.4-27.9-1.5-34.3,11
			c-0.1,0.3-0.3,0.5-0.4,0.8c-6.4,13.1-1.2,28.9,11.7,35.6c12.5,6.4,27.9,1.5,34.3-11c0.1-0.3,0.3-0.5,0.4-0.8
			C917.6,1956.6,912.5,1940.8,899.6,1934z M157.1,2425.9c-10.8-5.5-24-1.3-29.5,9.5c-0.1,0.2-0.2,0.4-0.3,0.7
			c-5.5,11.2-1,24.8,10,30.6c10.8,5.5,24,1.3,29.5-9.5c0.1-0.2,0.2-0.4,0.3-0.6C172.6,2445.3,168.1,2431.8,157.1,2425.9z
			 M1631.7,1325.1c-10.8-5.5-24-1.3-29.5,9.4c-0.1,0.2-0.2,0.4-0.3,0.7c-5.5,11.2-1,24.8,10,30.6c10.7,5.5,23.9,1.3,29.5-9.5
			c0.1-0.2,0.2-0.4,0.3-0.7C1647.2,1344.4,1642.7,1330.9,1631.7,1325.1L1631.7,1325.1z M736.8,2346.9c-9-4.6-20-1.1-24.6,7.9
			c-0.1,0.2-0.2,0.3-0.3,0.5c-4.5,9.4-0.9,20.6,8.4,25.5c9,4.6,19.9,1.1,24.5-7.9c0.1-0.2,0.2-0.4,0.3-0.5
			C749.7,2363,746,2351.8,736.8,2346.9z"/>
		<path id="Shape_copy" class="st3" d="M2318.3,557.2l228.7,754.1l322.6-52.8L2318.3,557.2 M2315.7,563.6l30.5,780.6l196.5-32.2
			L2315.7,563.6 M2543.9,1316.1l-193.6,31.7l236.8,110.7L2543.9,1316.1 M2865.1,1263.5l-316.9,51.9l44.1,145.5l0.5,0.2l0,0l2.1,1
			l34-25L2865.1,1263.5 M2871.5,1264.1l-272.3,200.1l290,138.7L2871.5,1264.1 M2875.8,1265.2l17.7,339.7l676.1,323.3L2875.8,1265.2
			 M2311.3,558.8l-281,837l310.2-50.8l0.8-1.6l0.8,0.3L2311.3,558.8 M2904.9,1770.3l-0.6,0.3l657.4,158.5l-667.9-319.5l8.4,159.9
			L2904.9,1770.3 M2595.4,1467l-3.3,2.4l-18.1,221.4l323.8,77.8l-8.4-161L2595.4,1467 M2346.5,1350.6l11.2,285.8l230.3-169.2
			l0.3-3.6L2346.5,1350.6 M2342.1,1349.1l-309.8,50.7l321,236.4L2342.1,1349.1 M2587.5,1472.8l-226.9,166.8l209.2,50.3
			L2587.5,1472.8 M2903.6,1775.2l-1,3.6l9.9,190.3l653.6-34.7l-663.8-160.1l0,0.4L2903.6,1775.2 M2899,1791.9l-50.1,180.7l59.3-3.2
			L2899,1791.9 M2569.4,1694.2l-209.6-50.5l186.4,334.9L2569.4,1694.2 M2898.1,1774.6L2559.4,1988l285-15.1l53.9-194.4
			L2898.1,1774.6 M2893.7,1772.4l-320-77.2l-23.7,290.1l1.5,2.7L2893.7,1772.4 M3570.1,1938.5l-657.4,34.9l14.3,273.2L3570.1,1938.5
			 M2357.1,1647.4l-50.5,494.8l238.5-150.3l0.5-5.8L2357.1,1647.4 M2908.5,1973.6l-60.7,3.2l-98.3,354.8l173.4-83.1L2908.5,1973.6
			 M2843.3,1977.1l-289.3,15.4l190.2,341.8l0.3-0.1L2843.3,1977.1 M3572.1,1942.2l-644.9,309l21,403.1L3572.1,1942.2 M2549.9,1993.9
			l-242.3,152.7l616.9,520.5L2549.9,1993.9 M2923.1,2253.2l-176.9,84.8l186.1,334.5l11.9-13.6L2923.1,2253.2 M3489.3,2043.2
			l-540.8,617.2l1.9,36.8L3489.3,2043.2 M2946.8,2708.4l-2.3-43.4l-13,14.8l-1.3-2.4l-626.4-528.6l-2.4,1.5l52-509.1l-331.6-244.2
			l3.6-0.6l285.4-849.9l-0.3-6.1l1.6,2.1l0.9-2.6l1.8,6.1l559.4,711.6l7.5-1.2l-5.1,3.7l705,673.7l2.7,0.7l-0.4,0.5l1.5,0.7
			l-3.5,1.7L2946.8,2708.4 M2339.1,1620.2c-10.5,8.6-12,24.1-3.3,34.6c0.2,0.2,0.4,0.4,0.5,0.6c9.2,10.6,25.2,12.1,36.1,3.2
			c10.5-8.7,12-24.2,3.3-34.7c-0.2-0.2-0.4-0.4-0.5-0.6C2366,1612.8,2350,1611.4,2339.1,1620.2z M2560.4,1677.7
			c-8.1,6.7-9.3,18.8-2.6,26.9c0.1,0.2,0.3,0.3,0.4,0.5c7.1,8.3,19.6,9.4,28.1,2.5c8.1-6.7,9.3-18.8,2.6-26.9
			c-0.1-0.2-0.3-0.3-0.4-0.5C2581.3,1672,2568.9,1670.9,2560.4,1677.7L2560.4,1677.7z M2535.7,1964.6c-10.9,9-12.4,25.1-3.4,35.9
			c0.2,0.2,0.4,0.4,0.6,0.7c9.5,11,26.1,12.5,37.4,3.3c10.9-9,12.4-25.1,3.4-35.9c-0.2-0.2-0.4-0.4-0.6-0.6
			C2563.6,1957,2547,1955.5,2535.7,1964.6L2535.7,1964.6z M2015.4,1372.2c-13.4,11-15.3,30.8-4.2,44.2c0.2,0.3,0.5,0.5,0.7,0.8
			c11.8,13.6,32.4,15.4,46,4.1c13.4-11,15.3-30.8,4.2-44.2c-0.2-0.3-0.5-0.6-0.7-0.8C2049.8,1362.8,2029.4,1361,2015.4,1372.2
			L2015.4,1372.2z M2289.8,2131.7c-10.8,8.9-12.4,25-3.4,35.8c0.2,0.2,0.4,0.4,0.6,0.7c9.5,11,26,12.5,37.3,3.3
			c10.8-9,12.4-25,3.4-35.9c-0.2-0.2-0.4-0.4-0.6-0.7C2317.7,2124,2301.1,2122.5,2289.8,2131.7L2289.8,2131.7z M2572,1446.5
			c-10.8,9-12.4,25-3.4,35.8c0.2,0.2,0.4,0.4,0.6,0.7c9.5,11,26,12.5,37.3,3.3c10.8-9,12.4-25,3.4-35.9c-0.2-0.2-0.4-0.4-0.5-0.6
			C2599.9,1438.8,2583.3,1437.3,2572,1446.5L2572,1446.5z M2731.1,2322.9c-9.3,7.7-10.6,21.5-2.9,30.8c0.2,0.2,0.3,0.4,0.5,0.5
			c8.2,9.4,22.4,10.7,32.1,2.9c9.3-7.7,10.6-21.5,2.9-30.8c-0.2-0.2-0.3-0.4-0.5-0.5C2755,2316.3,2740.8,2315,2731.1,2322.9
			L2731.1,2322.9z M2301.3,533.6c-9.3,7.7-10.6,21.5-2.9,30.8c0.1,0.2,0.3,0.4,0.5,0.5c8.2,9.5,22.4,10.7,32.1,2.9
			c9.3-7.7,10.6-21.5,2.9-30.8c-0.2-0.2-0.3-0.4-0.5-0.6C2325.2,527,2311,525.7,2301.3,533.6z M2887.2,1759
			c-7.8,6.4-8.9,17.9-2.4,25.7c0.1,0.2,0.3,0.3,0.4,0.5c6.8,7.9,18.6,8.9,26.7,2.4c7.8-6.4,8.9-17.9,2.4-25.7
			c-0.1-0.2-0.3-0.3-0.4-0.5C2907.1,1753.5,2895.3,1752.5,2887.2,1759z"/>
		<path id="Shape-2" class="st4" d="M1788.1,916.5l-623.2-482.2L932.5,664.2L1788.1,916.5 M1786.5,909.8l-477-618.6l-141.5,140
			L1786.5,909.8 M1164.6,428.6l139.5-138l-257.1,47L1164.6,428.6 M933.3,657.5l228.3-225.9l-120.2-93l-0.5,0.1v0l-2.3,0.4l-13.2,40
			L933.3,657.5 M927.7,660.8l106-320.8l-316.7,54.9L927.7,660.8 M923.5,662.4L712.3,395.7L-26.2,523.8L923.5,662.4 M1792.9,911.1
			L1537.1,66l-223.4,221.1l0.3,1.8l-0.8,0.2L1792.9,911.1 M607.2,267.5l0.3-0.6L-20.2,518.5L709.3,392l-99.4-125.5L607.2,267.5
			 M1035.2,335.4l1.3-3.9L923,140.6L614,264.8l100.1,126.4L1035.2,335.4 M1305.5,286.1L1130.9,59.6L1041.2,331l1.8,3.1L1305.5,286.1
			 M1309.9,284.9l223.1-220.8l-398.6-6.7L1309.9,284.9 M1038.3,326.2l88.4-267.4L927,139L1038.3,326.2 M605.4,262.7l-1.3-3.5
			L485.8,109.8L-26.9,516.7l633.7-254l-0.3-0.4L605.4,262.7 M599.5,246.5L535.6,70.2l-46.5,36.9L599.5,246.5 M924.8,135.2L1124.9,55
			L779-110L924.8,135.2 M610.3,260.1L762.7-110L539.2,67.4l68.7,189.7L610.3,260.1 M615.2,259.3l305.6-122.5L772-113.4l-2.7-1.3
			L615.2,259.3 M-32.5,515.8l515.6-409.3L313.3-107.9L-32.5,515.8 M1124.9,50.3L879.4-382.2L772.1-121.6l3,5L1124.9,50.3
			 M486.5,103.9l47.6-37.8L408.7-280.1L315.5-112L486.5,103.9 M537.7,63.2l227-180.1l-353-168.5l-0.1,0.3L537.7,63.2 M-36.3,513.9
			l346.7-625.4L59.8-427.9L-36.3,513.9 M767-120.4l109.1-264.8L71.7-452.2L767-120.4 M312.7-115.6l95.1-171.6L62.3-452l-1.8,18
			L312.7-115.6 M-27.3,383.6L56-432.7l-22.9-28.9L-27.3,383.6 M29.6-472.9l27,34l2-19.6l2.4,1.2l816.7,68l1.1-2.6l252.5,445
			l411.7,6.9l-2.6,2.6l259.7,858.1l3.8,4.8l-2.5-0.7l0.8,2.6l-5-3.9l-868.2-256l-5.4,5.3l2-6L-39.2,526.2l-2.6,1.1l0.1-0.7l-1.7,0.3
			l1.9-3.4L29.6-472.9 M1155.3,62.1c3.5-13.1-4.2-26.6-17.3-30.2c-0.3-0.1-0.5-0.1-0.8-0.2c-13.7-3.3-27.5,4.7-31.3,18.3
			c-3.5,13.1,4.2,26.6,17.4,30.2c0.3,0.1,0.5,0.1,0.8,0.2C1137.7,83.7,1151.6,75.6,1155.3,62.1z M941.6,143.4
			c2.7-10.2-3.3-20.7-13.5-23.5c-0.2-0.1-0.4-0.1-0.6-0.2c-10.6-2.6-21.4,3.7-24.3,14.2c-2.7,10.2,3.3,20.7,13.5,23.4
			c0.2,0.1,0.4,0.1,0.6,0.2C927.9,160.2,938.7,153.9,941.6,143.4z M795.6-104.8c3.7-13.6-4.4-27.6-18-31.3c-0.3-0.1-0.6-0.1-0.8-0.2
			c-14.1-3.5-28.5,4.9-32.4,18.9c-3.7,13.6,4.4,27.6,18,31.3c0.3,0.1,0.5,0.1,0.8,0.2C777.3-82.3,791.6-90.7,795.6-104.8z
			 M1562.8,76.7c4.5-16.7-5.4-34-22.2-38.5c-0.3-0.1-0.7-0.2-1-0.3c-17.4-4.3-35.3,6.2-39.9,23.3c-4.5,16.7,5.4,34,22.2,38.5
			c0.3,0.1,0.7,0.2,1,0.3C1540.3,104.3,1558.2,93.9,1562.8,76.7z M899.2-383.4c3.7-13.6-4.4-27.5-18-31.2c-0.3-0.1-0.6-0.1-0.9-0.2
			c-14.1-3.5-28.4,4.9-32.4,18.9c-3.7,13.6,4.4,27.6,18,31.2c0.3,0.1,0.6,0.1,0.8,0.2C881-361,895.3-369.4,899.2-383.4z
			 M1066.1,338.6c3.7-13.6-4.4-27.6-18-31.2c-0.3-0.1-0.6-0.1-0.8-0.2c-14.1-3.5-28.5,4.9-32.4,18.9c-3.6,13.6,4.4,27.6,18,31.2
			c0.3,0.1,0.5,0.1,0.8,0.2C1047.9,361,1062.2,352.6,1066.1,338.6z M428.8-283.6c3.1-11.7-3.8-23.7-15.5-26.8
			c-0.2-0.1-0.5-0.1-0.7-0.2c-12.1-3-24.4,4.2-27.8,16.3c-3.1,11.7,3.8,23.7,15.5,26.8c0.2,0.1,0.5,0.1,0.7,0.2
			C413.1-264.3,425.4-271.5,428.8-283.6z M1815.7,925.9c3.1-11.7-3.8-23.7-15.5-26.8c-0.2-0.1-0.5-0.1-0.7-0.2
			c-12.1-3-24.5,4.2-27.8,16.3c-3.1,11.7,3.8,23.7,15.5,26.8c0.2,0.1,0.5,0.1,0.7,0.2C1800,945.1,1812.3,937.9,1815.7,925.9z
			 M628.2,266.5c2.6-9.7-3.2-19.7-12.9-22.3c-0.2-0.1-0.4-0.1-0.6-0.1c-10.1-2.5-20.4,3.5-23.2,13.5c-2.6,9.7,3.2,19.7,12.9,22.3
			c0.2,0.1,0.4,0.1,0.6,0.1C615.1,282.5,625.4,276.5,628.2,266.5z"/>
		<path id="Shape-3" class="st5" d="M2963.5,339.3l439.5,406.4L3588.1,585L2963.5,339.3 M2964.4,344.4l323.4,501.3l112.8-97.9
			L2964.4,344.4 M3402.9,750l-111.1,96.5l194.1-19.7L3402.9,750 M3587.2,590l-181.9,157.9l84.8,78.4l0.4,0v0l1.7-0.2l11.9-29.7
			L3587.2,590 M3591.6,587.9l-95.8,237.9l238.9-22.1L3591.6,587.9 M3594.8,586.9l143.6,216.4l557.1-51.5L3594.8,586.9 M2959.6,343
			l146.7,660.1l178.1-154.5l-0.1-1.4l0.6-0.1L2959.6,343 M3810,907.6l-0.2,0.5l481-152.6l-550.4,50.9l67.6,101.9L3810,907.6
			 M3494.5,829.1l-1.2,2.9l74.7,152.6l236.8-75.3l-68-102.6L3494.5,829.1 M3290.4,849.8l118.4,183.5l81-201.2l-1.2-2.5L3290.4,849.8
			 M3287,850.5l-177.9,154.3l296.8,30L3287,850.5 M3491.7,836l-79.8,198.3l153-48.7L3491.7,836 M3811.1,911.4l0.8,2.8l80.4,121.2
			l403.4-278.1l-485.7,154l0.2,0.3L3811.1,911.4 M3814.6,924.1l38.4,138.3l36.6-25.2L3814.6,924.1 M3566.4,988.6l-153.3,48.6
			l249.3,147.4L3566.4,988.6 M3807.3,913.1l-132.9,272.6l175.9-121.3l-41.4-148.9L3807.3,913.1 M3803.6,913.4l-234.2,74.3l97.9,200
			l2,1.2L3803.6,913.4 M4299.8,758.4l-405.7,279.7l115.5,174L4299.8,758.4 M3412.8,1040.8l160.4,345l93.6-191.9l-1.9-4
			L3412.8,1040.8 M3891.4,1039.9l-37.5,25.8l75.5,271.7l78.2-122.3L3891.4,1039.9 M3851.2,1067.7l-178.6,123.1l254.4,150.4l0.1-0.2
			L3851.2,1067.7 M4302.5,760l-291,455l170.4,256.8L4302.5,760 M3670.6,1193.3l-95.1,195l596.1,101.3L3670.6,1193.3 M4009.6,1218
			l-79.8,124.8l249,147.2l2.3-13.6L4009.6,1218 M4289,858.8l-104.6,617l15.5,23.4L4289,858.8 M4202,1508l-18.3-27.6l-2.5,14.8
			l-1.8-1l-605.3-102.8l-0.9,1.9l-165.1-355l-306.6-31l2.1-1.8l-148.9-670.2l-2.5-3.9l1.8,0.7l-0.5-2.1l3.5,3.3l633.9,249.3l4.3-3.7
			l-1.8,4.4l712,167.6l2-0.6l-0.1,0.5l1.3-0.1l-1.6,2.5L4202,1508 M3390.7,1030c-3.4,10,2,20.9,12,24.3c10,3.4,20.9-2,24.3-12
			c3.4-10-2-20.9-12-24.3C3404.9,1014.6,3394.1,1020,3390.7,1030C3390.7,1030,3390.7,1030,3390.7,1030z M3554.2,981.3
			c-2.6,7.8,1.5,16.2,9.3,18.9s16.2-1.5,18.9-9.3c2.6-7.8-1.5-16.2-9.3-18.9C3565.3,969.4,3556.9,973.6,3554.2,981.3
			C3554.2,981.3,3554.2,981.3,3554.2,981.3z M3650.2,1179.6c-3.5,10.4,2,21.6,12.4,25.2c10.4,3.5,21.6-2,25.2-12.4
			c3.5-10.4-2-21.6-12.4-25.2c0,0,0,0,0,0C3665,1163.7,3653.7,1169.2,3650.2,1179.6z M3087.7,993.4c-4.3,12.8,2.5,26.6,15.3,31
			c12.8,4.3,26.6-2.5,31-15.3c4.3-12.8-2.5-26.6-15.3-31C3105.9,973.7,3092,980.6,3087.7,993.4
			C3087.7,993.4,3087.7,993.4,3087.7,993.4z M3558.4,1385.5c-3.5,10.4,2,21.6,12.4,25.1c10.4,3.5,21.6-2,25.1-12.4
			s-2-21.6-12.4-25.1c0,0,0,0,0,0C3573.2,1369.6,3561.9,1375.1,3558.4,1385.5C3558.4,1385.5,3558.4,1385.5,3558.4,1385.5z
			 M3471.6,824.8c-3.5,10.4,2,21.6,12.4,25.1c10.4,3.5,21.6-2,25.1-12.4c3.5-10.3-2-21.6-12.4-25.1
			C3486.4,808.9,3475.1,814.4,3471.6,824.8C3471.6,824.8,3471.6,824.8,3471.6,824.8L3471.6,824.8z M3914.3,1338.8
			c-3,8.9,1.8,18.6,10.7,21.6c8.9,3,18.6-1.8,21.6-10.7c3-8.9-1.8-18.5-10.6-21.6C3927,1325.1,3917.3,1329.9,3914.3,1338.8
			C3914.3,1338.8,3914.3,1338.8,3914.3,1338.8z M2943.4,330.3c-3,8.9,1.7,18.6,10.6,21.6c8.9,3,18.6-1.7,21.6-10.6
			c3-8.9-1.7-18.6-10.6-21.6c0,0,0,0,0,0C2956.1,316.7,2946.5,321.5,2943.4,330.3z M3794.3,907.1c-2.5,7.4,1.5,15.5,8.9,18
			s15.5-1.5,18-8.9c2.5-7.4-1.5-15.5-8.9-18C3804.9,895.7,3796.8,899.7,3794.3,907.1z"/>
	</g>
</g>
</svg>
